<?xml version="1.0" encoding="UTF-8"?>
<svg xmlns="http://www.w3.org/2000/svg" viewBox="0 0 1600 560" fill="none">
  <defs>
    <linearGradient id="lFarG" x1="0" y1="0" x2="0" y2="1">
      <stop offset="0" stop-color="#BFC8C2" stop-opacity="0.5"/>
      <stop offset="1" stop-color="#BFC8C2" stop-opacity="0.08"/>
    </linearGradient>
    <linearGradient id="lMidG" x1="0" y1="0" x2="0" y2="1">
      <stop offset="0" stop-color="#A3B0A6" stop-opacity="0.55"/>
      <stop offset="1" stop-color="#A3B0A6" stop-opacity="0.1"/>
    </linearGradient>
    <linearGradient id="lMistG" x1="0" y1="0" x2="0" y2="1">
      <stop offset="0" stop-color="#F4EFE4" stop-opacity="0"/>
      <stop offset="0.5" stop-color="#F4EFE4" stop-opacity="0.55"/>
      <stop offset="1" stop-color="#F4EFE4" stop-opacity="0"/>
    </linearGradient>
    <linearGradient id="lWaterG" x1="0" y1="0" x2="0" y2="1">
      <stop offset="0" stop-color="#E9EEE9" stop-opacity="0"/>
      <stop offset="0.3" stop-color="#E9EEE9" stop-opacity="0.5"/>
      <stop offset="1" stop-color="#E9EEE9" stop-opacity="0"/>
    </linearGradient>
    <g id="lFl">
      <circle cx="0" cy="-6.5" r="5" fill="#F5A9BA"/>
      <circle cx="6.2" cy="-2" r="5" fill="#F5A9BA"/>
      <circle cx="3.8" cy="5.4" r="5" fill="#F2A0B2"/>
      <circle cx="-3.8" cy="5.4" r="5" fill="#F2A0B2"/>
      <circle cx="-6.2" cy="-2" r="5" fill="#F5A9BA"/>
      <circle cx="0" cy="0" r="2.6" fill="#E4788F"/>
    </g>
    <linearGradient id="lEdgeG" x1="0" y1="0" x2="1" y2="0">
      <stop offset="0" stop-color="#FFFFFF" stop-opacity="0"/>
      <stop offset="0.12" stop-color="#FFFFFF" stop-opacity="1"/>
      <stop offset="0.88" stop-color="#FFFFFF" stop-opacity="1"/>
      <stop offset="1" stop-color="#FFFFFF" stop-opacity="0"/>
    </linearGradient>
    <mask id="lEdge" maskUnits="userSpaceOnUse" x="0" y="0" width="1600" height="560">
      <rect width="1600" height="560" fill="url(#lEdgeG)"/>
    </mask>
  </defs>
  <!-- Edge fade keeps the ranges from ending on a straight picture border,
       so the band can be dropped anywhere on the page without a seam. -->
  <g mask="url(#lEdge)">
    <path d="M0 430 C140 380 260 330 400 355 C530 378 620 430 760 415 C890 401 980 340 1120 352 C1250 363 1340 415 1460 405 C1530 399 1570 408 1600 404 L1600 560 L0 560 Z" fill="url(#lFarG)"/>
    <rect x="0" y="360" width="1600" height="110" fill="url(#lMistG)"/>
    <path d="M0 560 L0 528 C90 512 170 484 290 490 C400 496 480 524 610 522 C730 520 810 486 950 478 C1080 471 1160 492 1280 486 C1400 480 1510 506 1600 500 L1600 560 Z" fill="url(#lMidG)"/>
    <rect x="0" y="486" width="1600" height="74" fill="url(#lMistG)" opacity="0.7"/>
    <rect x="0" y="500" width="1600" height="60" fill="url(#lWaterG)"/>
    <g fill="#FFFFFF" opacity="0.4">
      <rect x="220" y="526" width="240" height="4" rx="2"/>
      <rect x="640" y="544" width="300" height="4" rx="2"/>
      <rect x="1060" y="532" width="220" height="4" rx="2"/>
    </g>
  </g>
</svg>
